<svg width="382" height="222" viewBox="0 0 382 222" fill="none" xmlns="http://www.w3.org/2000/svg">
<path d="M177.711 39.6178C183.827 39.6178 188.785 34.6598 188.785 28.5437V11.9325C188.785 5.81646 193.743 0.858398 199.859 0.858398H286.237H333.856H370.401C376.517 0.858398 381.475 5.81645 381.475 11.9325V56.0445V111.231V177.306C381.475 183.422 376.517 188.38 370.401 188.38H254.492C248.375 188.38 243.417 193.338 243.417 199.454V210.529C243.417 216.645 238.459 221.603 232.343 221.603H11.599C5.48295 221.603 0.524902 216.645 0.524902 210.529V111.231V50.692C0.524902 44.5759 5.48296 39.6178 11.599 39.6178H177.711Z" fill="#D9D9D9"/>
</svg>
